M48
;DRILL file {KiCad 5.0.0+dfsg1-2} date Tue Nov 12 11:48:26 2019
;FORMAT={-:-/ absolute / inch / decimal}
FMAT,2
INCH,TZ
T1C0.0295
T2C0.0315
T3C0.0350
T4C0.0394
T5C0.0791
%
G90
G05
M72
T1
X5.75Y-3.2
X5.75Y-3.25
X5.75Y-3.3
X5.8Y-4.2
X5.85Y-4.25
X5.9Y-4.2
T2
X5.35Y-3.2213
X5.35Y-3.3
X5.9Y-3.2
X6.0969Y-3.2
X6.05Y-3.9
X6.05Y-3.9984
X5.6Y-3.5
X5.6Y-4.
X5.15Y-4.2
X5.65Y-4.2
X5.75Y-3.5
X5.75Y-4.
X6.15Y-3.55
X6.15Y-3.6484
X4.95Y-4.2
X5.0484Y-4.2
X6.2Y-3.8
X6.2Y-4.
X5.45Y-3.8
X5.45Y-3.8984
X5.9Y-3.5
X5.9Y-4.
X5.35Y-4.
X5.4484Y-4.
X6.05Y-3.55
X6.05Y-3.6484
X5.55Y-3.2016
X5.55Y-3.3
X5.9Y-3.35
X6.0969Y-3.35
X5.35Y-3.8
X5.35Y-3.8984
X5.2Y-3.55
X5.2Y-4.05
T3
X5.Y-3.8
X5.Y-3.9
T4
X5.15Y-3.2
X5.15Y-3.3
T5
X4.8Y-3.6
X4.8Y-4.
T4
X4.665Y-3.1425G85X4.665Y-3.2213
G05
X4.8894Y-3.0638G85X4.8106Y-3.0638
G05
X4.8894Y-3.3G85X4.8106Y-3.3
G05
T0
M30
